<svg width="21" height="21" viewBox="0 0 21 21" fill="none" xmlns="http://www.w3.org/2000/svg">
<path d="M11.7312 10.5055L20.7329 1.50363C21.0804 1.16808 21.0901 0.614443 20.7544 0.267011C20.4189 -0.080422 19.8653 -0.0900559 19.5179 0.245489C19.5106 0.252509 19.5035 0.259683 19.4964 0.267011L10.4945 9.26885L1.49269 0.266959C1.14526 -0.0685846 0.591621 -0.0589508 0.256077 0.288482C-0.071267 0.627409 -0.071267 1.1647 0.256077 1.50363L9.2579 10.5055L0.256077 19.5073C-0.085359 19.8488 -0.085359 20.4025 0.256077 20.744C0.597565 21.0853 1.1512 21.0853 1.49269 20.744L10.4945 11.7421L19.4964 20.744C19.8437 21.0795 20.3974 21.0698 20.7329 20.7224C21.0602 20.3834 21.0602 19.8462 20.7329 19.5073L11.7312 10.5055Z" fill="#0B7572"/>
</svg>
