<svg width="23" height="23" viewBox="0 0 23 23" xmlns="http://www.w3.org/2000/svg">
<path d="M22.9945 23V22.9991H23.0002V14.7017C23.0002 10.6425 22.1176 7.51569 17.3245 7.51569C15.0203 7.51569 13.474 8.76755 12.8427 9.95438H12.776V7.89464H8.23145V22.9991H12.9636V15.5199C12.9636 13.5507 13.3407 11.6465 15.8039 11.6465C18.2309 11.6465 18.2671 13.8938 18.2671 15.6462V23H22.9945Z"/>
<path d="M0.376953 7.89473H5.11484V22.9991H0.376953V7.89473Z"/>
<path d="M2.74409 0C1.22922 0 0 1.21699 0 2.71678C0 4.21657 1.22922 5.45901 2.74409 5.45901C4.25896 5.45901 5.48818 4.21657 5.48818 2.71678C5.48723 1.21699 4.25801 0 2.74409 0V0Z"/>
</svg>
