<svg width="93" height="92" viewBox="0 0 93 92" fill="none" xmlns="http://www.w3.org/2000/svg">
<circle cx="46.9752" cy="46" r="46" fill="#E9E9EC"/>
<path d="M34.7562 57.3559L55.3364 65.9555V45.0078L34.7562 37.3638V57.3559Z" fill="#0B7572"/>
<path d="M71.1389 46.404L65.4059 48.462V42.6555L57.8353 45.3015V65.9552L79.1505 57.3556V37.731L71.1389 40.5975V46.404ZM64.3034 61.2511L63.4214 61.6186V56.9881L64.3034 56.6941V61.2511ZM65.8469 60.6631L64.9649 61.0306V56.4001L65.8469 56.1061V60.6631ZM68.9339 59.4136L68.0519 59.7076V55.1506L68.9339 54.8566V59.4136ZM70.4774 58.7521L69.5954 59.1196V54.6361L70.4774 54.3421V58.7521ZM73.5644 53.0926L74.4465 52.7986V57.1351L73.5644 57.5026V53.0926ZM71.8004 53.7541L72.6824 53.4601V57.8701L71.8004 58.2376V53.7541Z" fill="#0B7572"/>
<path d="M71.1391 37.7311L79.1507 34.7911L56.9535 27L49.824 29.499L71.1391 37.5841V37.7311Z" fill="#0B7572"/>
<path d="M43.5028 31.704L34.7562 34.791L56.9534 42.8761L65.3325 39.8625L43.5028 31.704Z" fill="#0B7572"/>
<path d="M13 55.4446H31.2281V51.7695H14.6905L13 55.4446Z" fill="#0B7572"/>
<path d="M16.0137 48.9765H31.2283V45.3015H17.7042L16.0137 48.9765Z" fill="#0B7572"/>
<path d="M19.027 42.2883V42.5823H31.2281V38.9072H20.644L19.027 42.2883Z" fill="#0B7572"/>
</svg>
