<svg width="94" height="94" viewBox="0 0 94 94" fill="none" xmlns="http://www.w3.org/2000/svg">
<circle cx="46.9752" cy="47" r="46" transform="rotate(0.5 46.9752 47)" fill="#E9E9EC"/>
<path d="M60.2823 54.7221H30.6434C30.6472 53.7881 30.349 52.8778 29.7934 52.1269C29.2378 51.3761 28.4544 50.8249 27.56 50.5555V30.4582C28.2507 30.264 28.8796 29.8948 29.3857 29.3862C29.8918 28.8777 30.2581 28.2471 30.4489 27.5554H44.3378C44.5406 28.2433 44.9126 28.8693 45.4196 29.3764C45.9267 29.8835 46.5528 30.2554 47.2406 30.4582V36.9443L44.6434 39.5554L43.2545 38.1666C43.1409 38.0519 43.0057 37.9609 42.8567 37.8988C42.7077 37.8367 42.5479 37.8047 42.3864 37.8047C42.225 37.8047 42.0652 37.8367 41.9162 37.8988C41.7672 37.9609 41.632 38.0519 41.5184 38.1666C41.4033 38.2814 41.312 38.4178 41.2497 38.5679C41.1875 38.718 41.1554 38.879 41.1554 39.0416C41.1554 39.2041 41.1875 39.3651 41.2497 39.5152C41.312 39.6654 41.4033 39.8017 41.5184 39.9166L42.9073 41.3054L41.5184 42.6943C41.4033 42.8092 41.312 42.9455 41.2497 43.0957C41.1875 43.2458 41.1554 43.4068 41.1554 43.5693C41.1554 43.7319 41.1875 43.8928 41.2497 44.043C41.312 44.1931 41.4033 44.3295 41.5184 44.4443C41.632 44.559 41.7672 44.65 41.9162 44.7121C42.0652 44.7742 42.225 44.8061 42.3864 44.8061C42.5479 44.8061 42.7077 44.7742 42.8567 44.7121C43.0057 44.65 43.1409 44.559 43.2545 44.4443L44.6434 43.0554L47.6017 46.0138C47.7154 46.1284 47.8506 46.2194 47.9996 46.2815C48.1486 46.3436 48.3084 46.3756 48.4698 46.3756C48.6312 46.3756 48.791 46.3436 48.94 46.2815C49.089 46.2194 49.2242 46.1284 49.3378 46.0138L52.4073 43.0416L53.7962 44.4304C53.9076 44.5592 54.0444 44.6635 54.198 44.7369C54.3516 44.8103 54.5187 44.8512 54.6888 44.857C54.859 44.8628 55.0285 44.8334 55.1867 44.7706C55.345 44.7078 55.4886 44.613 55.6085 44.4922C55.7284 44.3713 55.822 44.227 55.8835 44.0683C55.945 43.9095 55.9731 43.7398 55.9659 43.5697C55.9588 43.3996 55.9166 43.2328 55.842 43.0798C55.7673 42.9268 55.6619 42.7908 55.5323 42.6804L54.1434 41.2916L55.5323 39.9027C55.6474 39.7878 55.7386 39.6515 55.8009 39.5013C55.8632 39.3512 55.8953 39.1902 55.8953 39.0277C55.8953 38.8651 55.8632 38.7042 55.8009 38.554C55.7386 38.4039 55.6474 38.2675 55.5323 38.1527C55.4187 38.038 55.2834 37.947 55.1345 37.8849C54.9855 37.8228 54.8256 37.7909 54.6642 37.7909C54.5028 37.7909 54.343 37.8228 54.194 37.8849C54.045 37.947 53.9098 38.038 53.7962 38.1527L52.4073 39.5416L49.8239 36.9443V30.4582C50.5405 30.2442 51.1891 29.8478 51.7065 29.3079C52.2239 28.7679 52.5922 28.1029 52.7755 27.3779C52.9587 26.6529 52.9506 25.8928 52.7519 25.1718C52.5532 24.4509 52.1708 23.7939 51.642 23.2651C51.1132 22.7364 50.4562 22.3539 49.7353 22.1552C49.0144 21.9566 48.2542 21.9484 47.5292 22.1317C46.8042 22.3149 46.1392 22.6833 45.5993 23.2006C45.0593 23.718 44.663 24.3667 44.4489 25.0832H30.56C30.342 24.3744 29.9452 23.7337 29.4078 23.2227C28.8704 22.7118 28.2105 22.3478 27.4917 22.1657C26.7728 21.9837 26.0192 21.9899 25.3034 22.1835C24.5876 22.3772 23.9337 22.7519 23.4047 23.2715C22.8756 23.7911 22.4893 24.4382 22.2828 25.1504C22.0764 25.8627 22.0567 26.616 22.2258 27.338C22.3949 28.0601 22.747 28.7264 23.2483 29.2728C23.7496 29.8193 24.3831 30.2275 25.0878 30.4582V50.5832C24.1934 50.8527 23.4101 51.4039 22.8545 52.1547C22.2988 52.9056 22.0007 53.8158 22.0045 54.7499C22.0045 55.1527 22.0045 55.5277 22.0045 55.861C21.9985 55.8978 21.9985 55.9353 22.0045 55.9721V63.3888C22.0155 65.674 22.9301 67.8621 24.5486 69.4754C26.1671 71.0888 28.3581 71.9963 30.6434 71.9999H60.2823C62.5735 71.9999 64.7708 71.0898 66.3909 69.4697C68.011 67.8495 68.9212 65.6522 68.9212 63.361C68.9212 61.0699 68.011 58.8725 66.3909 57.2524C64.7708 55.6323 62.5735 54.7221 60.2823 54.7221ZM50.5601 41.2916L48.5323 43.3888L46.4628 41.2916L48.5323 39.2082L50.5601 41.2916ZM60.2823 67.0555C59.5477 67.0582 58.8288 66.8427 58.2168 66.4363C57.6049 66.0299 57.1274 65.4509 56.845 64.7727C56.5626 64.0945 56.488 63.3477 56.6307 62.6271C56.7733 61.9065 57.1268 61.2444 57.6462 60.725C58.1657 60.2055 58.8277 59.8521 59.5484 59.7094C60.269 59.5668 61.0158 59.6414 61.694 59.9238C62.3721 60.2062 62.9511 60.6836 63.3576 61.2956C63.764 61.9075 63.9795 62.6264 63.9767 63.361C63.9767 64.3409 63.5875 65.2806 62.8947 65.9734C62.2018 66.6662 61.2621 67.0555 60.2823 67.0555ZM26.9489 63.361C26.9462 62.6264 27.1617 61.9075 27.5681 61.2956C27.9745 60.6836 28.5535 60.2062 29.2317 59.9238C29.9099 59.6414 30.6567 59.5668 31.3773 59.7094C32.0979 59.8521 32.76 60.2055 33.2794 60.725C33.7989 61.2444 34.1523 61.9065 34.295 62.6271C34.4376 63.3477 34.363 64.0945 34.0806 64.7727C33.7982 65.4509 33.3208 66.0299 32.7088 66.4363C32.0969 66.8427 31.378 67.0582 30.6434 67.0555C29.6647 67.0518 28.7271 66.6614 28.035 65.9694C27.343 65.2773 26.9526 64.3397 26.9489 63.361ZM54.1017 63.361C54.1017 64.0951 53.8839 64.8126 53.4758 65.4227C53.0677 66.0328 52.4877 66.5081 51.8093 66.7884C51.1309 67.0687 50.3845 67.1413 49.6648 66.9971C48.9451 66.8528 48.2844 66.4983 47.7663 65.9783C47.2482 65.4583 46.8961 64.7962 46.7546 64.0759C46.6131 63.3557 46.6885 62.6096 46.9713 61.9323C47.2541 61.2549 47.7316 60.6767 48.3433 60.2709C48.9549 59.8651 49.6733 59.6499 50.4073 59.6527C51.3884 59.6564 52.3281 60.0487 53.0205 60.7437C53.7129 61.4388 54.1017 62.3799 54.1017 63.361ZM44.2267 63.361C44.2267 64.0945 44.0092 64.8114 43.6018 65.4213C43.1943 66.0311 42.6151 66.5064 41.9375 66.7871C41.2599 67.0678 40.5143 67.1412 39.7949 66.9981C39.0756 66.855 38.4148 66.5018 37.8962 65.9832C37.3776 65.4646 37.0244 64.8038 36.8813 64.0845C36.7382 63.3651 36.8117 62.6195 37.0923 61.9419C37.373 61.2643 37.8483 60.6851 38.4581 60.2777C39.068 59.8702 39.7849 59.6527 40.5184 59.6527C41.5019 59.6527 42.4451 60.0434 43.1406 60.7388C43.836 61.4343 44.2267 62.3775 44.2267 63.361Z" fill="#0B7572"/>
<path d="M30.6432 64.5977C31.3259 64.5977 31.8793 64.0442 31.8793 63.3615C31.8793 62.6789 31.3259 62.1254 30.6432 62.1254C29.9605 62.1254 29.4071 62.6789 29.4071 63.3615C29.4071 64.0442 29.9605 64.5977 30.6432 64.5977Z" fill="#0B7572"/>
<path d="M40.5179 64.5977C41.2005 64.5977 41.754 64.0442 41.754 63.3615C41.754 62.6789 41.2005 62.1254 40.5179 62.1254C39.8352 62.1254 39.2817 62.6789 39.2817 63.3615C39.2817 64.0442 39.8352 64.5977 40.5179 64.5977Z" fill="#0B7572"/>
<path d="M50.407 64.5977C51.0897 64.5977 51.6431 64.0442 51.6431 63.3615C51.6431 62.6789 51.0897 62.1254 50.407 62.1254C49.7243 62.1254 49.1709 62.6789 49.1709 63.3615C49.1709 64.0442 49.7243 64.5977 50.407 64.5977Z" fill="#0B7572"/>
<path d="M60.2818 64.5977C60.9645 64.5977 61.5179 64.0442 61.5179 63.3615C61.5179 62.6789 60.9645 62.1254 60.2818 62.1254C59.5991 62.1254 59.0457 62.6789 59.0457 63.3615C59.0457 64.0442 59.5991 64.5977 60.2818 64.5977Z" fill="#0B7572"/>
</svg>
