<?xml version="1.0" encoding="utf-8"?><svg viewBox="0 0 94 94" xmlns="http://www.w3.org/2000/svg" xmlns:xlink="http://www.w3.org/1999/xlink"><style>:root>svg{display:none}:root>svg:target{display:block}</style><svg fill="none" viewBox="0 0 20 19" id="add" xmlns="http://www.w3.org/2000/svg"><path fill-rule="evenodd" clip-rule="evenodd" d="M8 3.75a.75.75 0 01-.75.75H.75a.75.75 0 010-1.5h6.5a.75.75 0 01.75.75z" fill="#fff"/><path fill-rule="evenodd" clip-rule="evenodd" d="M0 18V3h1.5v15H0z" fill="#fff"/><path fill-rule="evenodd" clip-rule="evenodd" d="M16 19H0v-1.5h16V19z" fill="#fff"/><path fill-rule="evenodd" clip-rule="evenodd" d="M15.25 19a.75.75 0 01-.75-.75v-6.5a.75.75 0 011.5 0v6.5a.75.75 0 01-.75.75zM15.75 0a.75.75 0 01.75.75v6.5a.75.75 0 01-1.5 0V.75a.75.75 0 01.75-.75z" fill="#fff"/><path fill-rule="evenodd" clip-rule="evenodd" d="M20 3.75a.75.75 0 01-.75.75h-6.5a.75.75 0 010-1.5h6.5a.75.75 0 01.75.75z" fill="#fff"/></svg><svg fill="none" viewBox="0 0 21 21" id="cross-icon" xmlns="http://www.w3.org/2000/svg"><path d="M11.731 10.505l9.002-9.001A.874.874 0 1019.496.267l-9.001 9.002L1.492.267A.875.875 0 00.256 1.504l9.002 9.002-9.002 9.001a.875.875 0 001.237 1.237l9.002-9.002 9.001 9.002a.874.874 0 001.237-1.237l-9.002-9.002z" fill="#0B7572"/></svg><svg fill="none" viewBox="0 0 28 18" id="mail" xmlns="http://www.w3.org/2000/svg"><path d="M2.049 0A2.03 2.03 0 00.96.32l12.122 10.255c.555.47 1.303.47 1.857 0L27.039.32A2.03 2.03 0 0025.952 0H2.05zM.117 1.377A2.047 2.047 0 000 2.049v13.658c0 .412.124.79.33 1.11L9.007 8.91.117 1.376zm27.766 0l-8.868 7.522 8.654 7.918c.207-.32.331-.698.331-1.11V2.05c0-.237-.044-.461-.117-.672zM17.97 9.796l-2.156 1.824a2.799 2.799 0 01-3.617 0l-2.145-1.814L1.44 17.66c.192.06.395.096.608.096H25.95c.213 0 .416-.036.608-.096l-8.59-7.864z" fill="#0B7572"/></svg><svg viewBox="0 0 34 18" fill="none" id="menu-icon" xmlns="http://www.w3.org/2000/svg"><path d="M1 1h32M1 17h32M1 9h21.6" stroke="#fff" stroke-width="2" stroke-linecap="round"/></svg><svg fill="none" viewBox="0 0 24 32" id="phone" xmlns="http://www.w3.org/2000/svg"><path d="M11.002 6.7L7.638.871C6.782-.61 5.3.246 5.3.246L3.225 1.444 8.3 10.235l2.075-1.198c1.482-.856.627-2.338.627-2.338zm8.622 24.837l-5.075-8.792c-1.254.723-2.403-.613-3.46-2.046a32.943 32.943 0 01-3.477-6.023c-.713-1.632-1.25-3.322-.043-4.02l-5.075-8.79C.705 2.899-2.853 8.397 4.22 20.649c7.095 12.29 13.615 11.92 15.403 10.888zm3.433-3.958l-3.364-5.827c-.856-1.482-2.338-.626-2.338-.626l-2.075 1.198 5.075 8.791 2.075-1.198c1.483-.856.627-2.338.627-2.338z" fill="#0B7572"/></svg><svg fill="none" viewBox="0 0 35 38" id="play" xmlns="http://www.w3.org/2000/svg"><path d="M32.203 17.701c1 .578 1 2.02 0 2.598L4.523 36.28a1.5 1.5 0 01-2.25-1.298V3.02a1.5 1.5 0 012.25-1.3l27.68 15.981z" fill="#0B7572" stroke="#0B7572" stroke-width="3"/></svg><svg fill="none" viewBox="0 0 93 92" id="services-1" xmlns="http://www.w3.org/2000/svg"><circle cx="46.859" cy="46" r="46" fill="#E9E9EC"/><path d="M38.094 21c-3.328 7.725-11.326 1.303-15.496 5.952.971-7.997 7.46-1.553 15.496-5.952zm-9.962 7.143v14.583l7.748 4.465v-8.334l15.496 8.334v-8.334l15.496 8.334V71H20.384V28.143h7.748zm32.652 26.786h-7.748v7.142h7.748V54.93zm-13.282 0h-7.748v7.142h7.748V54.93zm-13.282 0h-7.748v7.142h7.748V54.93z" fill="#0B7572"/></svg><svg fill="none" viewBox="0 0 94 94" id="services-2" xmlns="http://www.w3.org/2000/svg"><circle cx="46.975" cy="47" r="46" transform="rotate(.5 46.975 47)" fill="#E9E9EC"/><path d="M60.282 54.722H30.643a4.334 4.334 0 00-3.083-4.166V30.458a4.166 4.166 0 002.889-2.903h13.889a4.292 4.292 0 002.903 2.903v6.486l-2.598 2.611-1.389-1.388a1.22 1.22 0 00-1.736 0 1.236 1.236 0 000 1.75l1.39 1.388-1.39 1.39a1.236 1.236 0 00.868 2.111 1.222 1.222 0 00.868-.362l1.39-1.389 2.958 2.959a1.224 1.224 0 001.736 0l3.07-2.972 1.388 1.388a1.235 1.235 0 101.736-1.75l-1.389-1.388 1.39-1.39a1.236 1.236 0 00-1.339-2.017 1.22 1.22 0 00-.398.268l-1.389 1.389-2.583-2.598v-6.486a4.32 4.32 0 10-5.375-5.375H30.56a4.32 4.32 0 10-5.472 5.375v20.125a4.334 4.334 0 00-3.084 4.167v1.111a.345.345 0 000 .111v7.417a8.653 8.653 0 008.64 8.61h29.638a8.639 8.639 0 100-17.277zm-9.722-13.43l-2.028 2.097-2.07-2.097 2.07-2.084 2.028 2.084zm9.722 25.763a3.71 3.71 0 113.695-3.694 3.694 3.694 0 01-3.695 3.694zM26.95 63.361a3.709 3.709 0 117.417-.027 3.709 3.709 0 01-7.417.027zm27.153 0a3.708 3.708 0 11-7.416 0 3.708 3.708 0 017.416 0zm-9.875 0a3.71 3.71 0 11-7.418 0 3.71 3.71 0 017.418 0z" fill="#0B7572"/><path d="M30.643 64.598a1.236 1.236 0 100-2.473 1.236 1.236 0 000 2.473zM40.518 64.598a1.236 1.236 0 100-2.473 1.236 1.236 0 000 2.473zM50.407 64.598a1.236 1.236 0 100-2.473 1.236 1.236 0 000 2.473zM60.282 64.598a1.236 1.236 0 100-2.473 1.236 1.236 0 000 2.473z" fill="#0B7572"/></svg><svg fill="none" viewBox="0 0 93 92" id="services-3" xmlns="http://www.w3.org/2000/svg"><circle cx="46.975" cy="46" r="46" fill="#E9E9EC"/><path d="M34.756 57.356l20.58 8.6V45.008l-20.58-7.644v19.992zM71.139 46.404l-5.733 2.058v-5.806l-7.57 2.645v20.654l21.314-8.6V37.732l-8.011 2.866v5.807zm-6.836 14.847l-.882.368v-4.63l.882-.295v4.557zm1.544-.588l-.882.368V56.4l.882-.295v4.557zm3.087-1.25l-.882.295V55.15l.882-.294v4.557zm1.543-.66l-.882.367v-4.484l.882-.294v4.41zm3.087-5.66l.883-.294v4.336l-.883.368v-4.41zm-1.764.661l.882-.294v4.41l-.882.368v-4.484zM71.14 37.731l8.01-2.94L56.954 27l-7.129 2.499 21.315 8.085v.147zM43.503 31.704l-8.747 3.087 22.197 8.085 8.38-3.014-21.83-8.158zM13 55.445h18.228V51.77H14.69L13 55.444zM16.014 48.977h15.214v-3.675H17.704l-1.69 3.675zM19.027 42.288v.294h12.201v-3.675H20.644l-1.617 3.381z" fill="#0B7572"/></svg><svg fill="none" viewBox="0 0 28 28" id="skype" xmlns="http://www.w3.org/2000/svg"><path d="M27.009 16.337c-.01.05-.024-.044 0 0 .144-.788.22-1.595.22-2.402 0-1.79-.35-3.525-1.04-5.16a13.203 13.203 0 00-2.834-4.212A13.166 13.166 0 0014.008.682c-.841 0-1.684.079-2.504.237h-.006A7.822 7.822 0 007.828 0C5.736 0 3.77.816 2.292 2.298A7.806 7.806 0 000 7.847c0 1.334.342 2.645.985 3.803-.13.751-.2 1.519-.2 2.285 0 1.79.35 3.525 1.04 5.159a13.191 13.191 0 002.833 4.213 13.148 13.148 0 004.203 2.84 13.086 13.086 0 005.147 1.042c.777 0 1.555-.07 2.315-.206A7.804 7.804 0 0020.174 28a7.76 7.76 0 005.534-2.298A7.8 7.8 0 0028 20.155a7.863 7.863 0 00-.991-3.818zM14.06 22.052c-4.697 0-6.798-2.315-6.798-4.05 0-.89.655-1.514 1.558-1.514 2.01 0 1.49 2.894 5.24 2.894 1.92 0 2.98-1.045 2.98-2.115 0-.643-.316-1.356-1.58-1.668l-4.178-1.046c-3.365-.846-3.975-2.669-3.975-4.383 0-3.559 3.342-4.895 6.481-4.895 2.892 0 6.3 1.602 6.3 3.737 0 .915-.79 1.447-1.693 1.447-1.715 0-1.4-2.38-4.855-2.38-1.715 0-2.665.778-2.665 1.892 0 1.112 1.355 1.467 2.53 1.735l3.093.688c3.387.757 4.246 2.74 4.246 4.607 0 2.891-2.214 5.05-6.684 5.05z" fill="#0B7572"/></svg><svg viewBox="0 0 22 22" id="social-1" xmlns="http://www.w3.org/2000/svg"><path d="M16.045 0H5.955A5.962 5.962 0 000 5.955v10.09A5.962 5.962 0 005.955 22h10.09A5.962 5.962 0 0022 16.045V5.955A5.962 5.962 0 0016.045 0zM11 17.015A6.022 6.022 0 014.985 11 6.022 6.022 0 0111 4.985 6.022 6.022 0 0117.015 11 6.022 6.022 0 0111 17.015zm6.16-10.612a1.78 1.78 0 01-1.778-1.777c0-.98.797-1.778 1.777-1.778.98 0 1.778.797 1.778 1.778a1.78 1.78 0 01-1.778 1.777z"/><path d="M11 7.333A3.67 3.67 0 007.333 11 3.67 3.67 0 0011 14.667 3.67 3.67 0 0014.666 11 3.67 3.67 0 0011 7.333zM17.16 4.138a.488.488 0 100 .977.488.488 0 000-.977z"/></svg><svg viewBox="0 0 33 19" id="social-2" xmlns="http://www.w3.org/2000/svg"><path d="M27.384 10.895c-.533-.665-.38-.96 0-1.555.007-.007 4.411-6.014 4.865-8.05l.003-.002c.225-.742 0-1.288-1.09-1.288h-3.609c-.918 0-1.342.468-1.569.992 0 0-1.837 4.34-4.436 7.154-.838.813-1.226 1.073-1.684 1.073-.226 0-.576-.26-.576-1.003V1.288C19.288.398 19.03 0 18.27 0h-5.673c-.576 0-.919.415-.919.802 0 .844 1.3 1.038 1.434 3.413v5.153c0 1.13-.207 1.337-.668 1.337-1.226 0-4.203-4.358-5.968-9.345C6.12.392 5.772 0 4.847 0h-3.61C.208.001 0 .47 0 .993c0 .926 1.227 5.528 5.704 11.608C8.688 16.751 12.89 19 16.712 19c2.298 0 2.579-.5 2.579-1.358 0-3.966-.208-4.34.943-4.34.533 0 1.452.26 3.597 2.262C26.283 17.937 26.686 19 28.058 19h3.608c1.028 0 1.55-.5 1.25-1.485-.686-2.072-5.323-6.335-5.532-6.62z"/></svg><svg viewBox="0 0 23 23" id="social-3" xmlns="http://www.w3.org/2000/svg"><path d="M22.994 23H23v-8.298c0-4.06-.882-7.186-5.675-7.186-2.305 0-3.851 1.252-4.482 2.438h-.067v-2.06H8.231V23h4.733v-7.48c0-1.968.377-3.873 2.84-3.873 2.427 0 2.463 2.248 2.463 4V23h4.727zM.377 7.895h4.738v15.104H.377V7.895zM2.744 0C1.23 0 0 1.217 0 2.717s1.23 2.742 2.744 2.742a2.753 2.753 0 002.744-2.742C5.488 1.217 4.258 0 2.744 0z"/></svg><svg fill="none" viewBox="0 0 21 19" id="tz" xmlns="http://www.w3.org/2000/svg"><path d="M19.42 1.605a5.338 5.338 0 00-7.632 0L1.105 12.454a3.882 3.882 0 000 5.424 3.74 3.74 0 005.342 0L17.13 7.03a2.223 2.223 0 000-3.1 2.142 2.142 0 00-3.052 0l-9.158 9.3a.548.548 0 00-.123.6.55.55 0 00.295.3.534.534 0 00.592-.125l9.157-9.3a1.054 1.054 0 011.526 0c.43.437.43 1.114 0 1.55L5.684 17.104a2.652 2.652 0 01-3.816 0 2.751 2.751 0 010-3.875l10.684-10.85a4.25 4.25 0 016.105 0 4.41 4.41 0 010 6.2l-9.158 9.3a.549.549 0 00-.123.6.549.549 0 00.295.299.531.531 0 00.591-.125l9.158-9.299c2.107-2.14 2.107-5.61 0-7.75z" fill="#fff"/></svg><svg fill="none" viewBox="0 0 28 28" id="wapp" xmlns="http://www.w3.org/2000/svg"><path fill-rule="evenodd" clip-rule="evenodd" d="M14 0C6.262 0 0 6.258 0 14c0 2.92.89 5.62 2.472 7.94a.7.7 0 01.087.602L1.137 27.3l4.66-1.608a.7.7 0 01.601.077A13.916 13.916 0 0014 28c7.742 0 14-6.258 14-14S21.742 0 14 0zM8.269 6.103l2.548 4.211-1.06 1.05a.7.7 0 00-.11.842c1.619 2.804 3.537 4.985 6.223 6.169a.7.7 0 00.777-.142l1.126-1.127 4.113 2.57c-.455 1.026-1.05 1.636-1.728 1.991-.787.412-1.748.49-2.844.263-2.193-.455-4.841-2.178-7-4.386-2.158-2.208-3.829-4.893-4.255-7.077-.213-1.092-.118-2.032.285-2.778.347-.642.937-1.192 1.925-1.586z" fill="#0B7572"/></svg><svg fill="none" viewBox="0 0 80 80" id="why-us-1" xmlns="http://www.w3.org/2000/svg"><circle cx="40" cy="40" r="40" fill="#E9E9EC"/><path fill-rule="evenodd" clip-rule="evenodd" d="M60.219 27.84H19.79A1.791 1.791 0 0018 29.63v28.876a1.792 1.792 0 001.79 1.79h40.429c.488 0 .94-.199 1.257-.524.325-.326.524-.769.524-1.266V29.631a1.791 1.791 0 00-1.781-1.79zM40.845 46.619v9.275c0 .462-.38.841-.84.841a.845.845 0 01-.841-.84v-9.276a2.303 2.303 0 01.84-4.448 2.303 2.303 0 01.841 4.448z" fill="#0B7572"/><path fill-rule="evenodd" clip-rule="evenodd" d="M57.95 31.403a17.902 17.902 0 00-5.253-12.141A17.91 17.91 0 0040.004 14a17.871 17.871 0 00-12.692 5.262 17.902 17.902 0 00-5.253 12.14h35.89zm-3.806-3.3a14.504 14.504 0 00-3.78-6.5 14.597 14.597 0 00-10.36-4.294 14.597 14.597 0 00-10.36 4.294 14.554 14.554 0 00-3.779 6.5h28.279z" fill="#0B7572"/></svg><svg fill="none" viewBox="0 0 80 80" id="why-us-2" xmlns="http://www.w3.org/2000/svg"><circle cx="40" cy="40" r="40" fill="#E9E9EC"/><path fill-rule="evenodd" clip-rule="evenodd" d="M26.168 51.745h6.902c.455 0 .822.368.822.822v6.902a.821.821 0 01-.822.822h-6.902a.821.821 0 01-.822-.822v-6.902c0-.454.367-.822.822-.822zm27.445-9.638H40.96a.821.821 0 110-1.643h12.654a.821.821 0 110 1.643zM34.404 25.383l-6.458 6.457a.822.822 0 01-1.305-.155l-1.952-3.383a.824.824 0 01.3-1.121.824.824 0 011.12.3l1.422 2.465 5.713-5.714a.823.823 0 011.16 0 .823.823 0 010 1.16v-.01zM30.19 15h-9.367a.821.821 0 00-.822.822v47.853c0 .454.367.822.822.822h37.374a.821.821 0 00.821-.822V15.822a.821.821 0 00-.822-.822h-9.367v4.476a.821.821 0 01-.822.822H31.011a.821.821 0 01-.822-.822V15zm9.948 41.018c0-.454.367-.821.822-.821h12.654a.821.821 0 110 1.643H40.96a.82.82 0 01-.822-.822zm-5.733-17.382l-6.458 6.458a.822.822 0 01-1.305-.155l-1.952-3.383a.824.824 0 01.3-1.121.824.824 0 011.12.3l1.422 2.465 5.713-5.714a.823.823 0 011.16 0 .823.823 0 010 1.16v-.01zm6.555-9.783a.82.82 0 110-1.643h12.654a.821.821 0 110 1.643H40.96z" fill="#0B7572"/><path fill-rule="evenodd" clip-rule="evenodd" d="M48.006 15.03H31.011v4.446h16.995v-4.447z" fill="#0B7572"/></svg><svg fill="none" viewBox="0 0 80 80" id="why-us-3" xmlns="http://www.w3.org/2000/svg"><circle cx="40" cy="40" r="40" fill="#E9E9EC"/><path fill-rule="evenodd" clip-rule="evenodd" d="M27.54 27.54A17.576 17.576 0 0140 22.373c4.864 0 9.273 1.977 12.46 5.165A17.576 17.576 0 0157.627 40c0 4.864-1.977 9.273-5.165 12.46A17.576 17.576 0 0140 57.627a17.576 17.576 0 01-12.46-5.165A17.576 17.576 0 0122.373 40c0-4.864 1.977-9.273 5.165-12.46zM62 40a21.933 21.933 0 00-6.445-15.555A21.933 21.933 0 0040 18a21.933 21.933 0 00-15.555 6.445A21.933 21.933 0 0018 40a21.933 21.933 0 006.445 15.555A21.933 21.933 0 0040 62a21.933 21.933 0 0015.555-6.445A21.933 21.933 0 0062 40z" fill="#0B7572"/><path fill-rule="evenodd" clip-rule="evenodd" d="M34.913 34.99c0-1.564.55-2.828 1.658-3.79.74-.653 1.84-1.048 3.291-1.194v-1.049h1.298v1.049c1.272.12 2.286.498 3.034 1.117.962.79 1.538 1.89 1.727 3.283l-2.269.343c-.129-.86-.395-1.52-.808-1.976-.403-.456-.97-.765-1.684-.911v6.325c1.1.275 1.84.498 2.192.653.679.3 1.237.662 1.667 1.091.43.43.765.946.997 1.538.232.593.352 1.238.352 1.925 0 1.522-.49 2.785-1.452 3.808-.963 1.022-2.218 1.564-3.756 1.632v2.218h-1.297V48.86c-1.1-.137-1.986-.387-2.673-.739-.688-.352-1.28-.928-1.78-1.71-.497-.79-.79-1.753-.867-2.888l2.209-.412c.171 1.177.472 2.045.902 2.595.619.782 1.358 1.212 2.217 1.306v-6.978c-.902-.172-1.822-.524-2.767-1.048a4.08 4.08 0 01-1.616-1.624c-.378-.688-.567-1.47-.567-2.355l-.008-.017zM56.156 40c0-4.46-1.804-8.5-4.735-11.421A16.108 16.108 0 0040 23.844c-4.46 0-8.5 1.804-11.421 4.735A16.108 16.108 0 0023.844 40c0 4.46 1.804 8.5 4.735 11.421A16.108 16.108 0 0040 56.156c4.46 0 8.5-1.804 11.421-4.735A16.108 16.108 0 0056.156 40z" fill="#0B7572"/><path fill-rule="evenodd" clip-rule="evenodd" d="M39.863 37.903v-6.067c-.851.129-1.53.473-2.02 1.023-.49.55-.739 1.203-.739 1.968 0 .747.206 1.375.627 1.873.421.507 1.126.91 2.123 1.203h.009zM44.1 43.532c0-.79-.198-1.435-.594-1.916-.395-.482-1.186-.92-2.363-1.298v6.677a3.24 3.24 0 002.114-1.108c.559-.636.834-1.418.834-2.355h.008z" fill="#0B7572"/></svg><svg fill="none" viewBox="0 0 80 80" id="why-us-4" xmlns="http://www.w3.org/2000/svg"><circle cx="40" cy="40" r="40" fill="#E9E9EC"/><path fill-rule="evenodd" clip-rule="evenodd" d="M22.287 29.011A21.928 21.928 0 0018 42.073c0 4.89 1.592 9.408 4.287 13.062 2.445-.902 5.169-1.621 8.094-2.12.345-.057.69-.115 1.036-.163-.672-3.222-1.046-6.885-1.046-10.77 0-1.793.077-3.538.23-5.217l-.738 1.2-5.236-8.258a37.215 37.215 0 01-2.34-.786v-.01zM30.62 54.444c-2.656.451-5.14 1.094-7.374 1.89a19.43 19.43 0 001.85 1.918 21.881 21.881 0 0011.145 5.495c-1.228-1.237-2.321-3.06-3.213-5.342a33.559 33.559 0 01-1.295-4.143 38.48 38.48 0 00-1.112.182zM33.2 54.07a31.294 31.294 0 001.2 3.808c1.495 3.826 3.48 6.195 5.61 6.195 2.128 0 4.114-2.369 5.61-6.195.45-1.151.853-2.426 1.198-3.807a57.72 57.72 0 00-6.799-.403c-2.35 0-4.622.134-6.8.403H33.2zM31.839 42.064c0 3.826.374 7.432 1.035 10.568a59.295 59.295 0 0114.27 0c.662-3.145 1.036-6.742 1.036-10.568 0-3.827-.374-7.433-1.035-10.569a58.92 58.92 0 01-13.32.105l-.893 1.449-.49.796c-.392 2.541-.603 5.313-.603 8.228v-.01zM34.668 30.22c1.726.163 3.51.24 5.332.24 2.35 0 4.622-.135 6.8-.403a31.276 31.276 0 00-1.2-3.807c-1.496-3.827-3.48-6.196-5.61-6.196-.633 0-1.256.211-1.86.614.028.182.048.374.057.566v.038c0 .02 0 .048.01.067.01.096.02.192.02.288V21.991c0 1.688-.701 3.549-1.583 4.978l-1.986 3.241.02.01zM46.972 25.722c.49 1.246.92 2.637 1.295 4.143.374-.058.748-.115 1.112-.182 2.657-.451 5.14-1.094 7.375-1.89A21.973 21.973 0 0043.77 20.37c1.227 1.238 2.32 3.06 3.213 5.342l-.01.01zM48.583 31.294c.672 3.222 1.046 6.886 1.046 10.77 0 3.884-.374 7.547-1.046 10.77.346.047.69.105 1.036.162 2.925.5 5.649 1.218 8.094 2.12A21.927 21.927 0 0062 42.054c0-4.891-1.592-9.408-4.287-13.062-2.445.902-5.169 1.62-8.094 2.12-.345.057-.69.115-1.036.163v.019zM48.267 54.272a32.012 32.012 0 01-1.295 4.143c-.892 2.273-1.975 4.104-3.212 5.342a21.889 21.889 0 0011.134-5.496 21.97 21.97 0 001.85-1.927c-2.234-.796-4.718-1.43-7.374-1.89a38.416 38.416 0 00-1.113-.182l.01.01zM32.069 23.104a3.29 3.29 0 01-4.661 0 3.29 3.29 0 010-4.661 3.29 3.29 0 014.66 0 3.29 3.29 0 010 4.66zm-.326 9.091l-.058.087.058-.087zm5.006-10.827v0zM24.78 17.033a7.002 7.002 0 00-2.062 4.968c0 1.18.643 2.82 1.583 4.594.01.01.019.019.038.028a.67.67 0 01.125.163l.633.998c.01.01.01.019.019.029l4.747 7.48 1.017-1.65c.019-.028.038-.067.057-.096l.767-1.246.058-.096 3.673-5.984c.815-1.64 1.362-3.127 1.362-4.21v-.279-.019c0-.057-.01-.134-.02-.23 0-.02 0-.038-.01-.067v-.02a7.02 7.02 0 00-2.032-4.334A7.002 7.002 0 0029.767 15a7.002 7.002 0 00-4.968 2.062l-.019-.029z" fill="#0B7572"/></svg></svg>